<svg width="120" height="30" viewBox="0 0 120 30" fill="none" xmlns="http://www.w3.org/2000/svg">
<g clip-path="url(#clip0_1_3)">
<rect width="120" height="30" fill="white"/>
<rect width="120" height="30" fill="black" fill-opacity="0.85"/>
<path d="M34.6406 4H36.8203V19.5391L36.6328 22H34.6406V4ZM45.3867 15.5547V15.8008C45.3867 16.7227 45.2773 17.5781 45.0586 18.3672C44.8398 19.1484 44.5195 19.8281 44.0977 20.4062C43.6758 20.9844 43.1602 21.4336 42.5508 21.7539C41.9414 22.0742 41.2422 22.2344 40.4531 22.2344C39.6484 22.2344 38.9414 22.0977 38.332 21.8242C37.7305 21.543 37.2227 21.1406 36.8086 20.6172C36.3945 20.0938 36.0625 19.4609 35.8125 18.7188C35.5703 17.9766 35.4023 17.1406 35.3086 16.2109V15.1328C35.4023 14.1953 35.5703 13.3555 35.8125 12.6133C36.0625 11.8711 36.3945 11.2383 36.8086 10.7148C37.2227 10.1836 37.7305 9.78125 38.332 9.50781C38.9336 9.22656 39.6328 9.08594 40.4297 9.08594C41.2266 9.08594 41.9336 9.24219 42.5508 9.55469C43.168 9.85938 43.6836 10.2969 44.0977 10.8672C44.5195 11.4375 44.8398 12.1211 45.0586 12.918C45.2773 13.707 45.3867 14.5859 45.3867 15.5547ZM43.207 15.8008V15.5547C43.207 14.9219 43.1484 14.3281 43.0312 13.7734C42.9141 13.2109 42.7266 12.7188 42.4688 12.2969C42.2109 11.8672 41.8711 11.5312 41.4492 11.2891C41.0273 11.0391 40.5078 10.9141 39.8906 10.9141C39.3438 10.9141 38.8672 11.0078 38.4609 11.1953C38.0625 11.3828 37.7227 11.6367 37.4414 11.957C37.1602 12.2695 36.9297 12.6289 36.75 13.0352C36.5781 13.4336 36.4492 13.8477 36.3633 14.2773V17.1016C36.4883 17.6484 36.6914 18.1758 36.9727 18.6836C37.2617 19.1836 37.6445 19.5938 38.1211 19.9141C38.6055 20.2344 39.2031 20.3945 39.9141 20.3945C40.5 20.3945 41 20.2773 41.4141 20.043C41.8359 19.8008 42.1758 19.4688 42.4336 19.0469C42.6992 18.625 42.8945 18.1367 43.0195 17.582C43.1445 17.0273 43.207 16.4336 43.207 15.8008ZM50.2969 11.3125V22H48.1289V9.32031H50.2383L50.2969 11.3125ZM54.2578 9.25L54.2461 11.2656C54.0664 11.2266 53.8945 11.2031 53.7305 11.1953C53.5742 11.1797 53.3945 11.1719 53.1914 11.1719C52.6914 11.1719 52.25 11.25 51.8672 11.4062C51.4844 11.5625 51.1602 11.7812 50.8945 12.0625C50.6289 12.3438 50.418 12.6797 50.2617 13.0703C50.1133 13.4531 50.0156 13.875 49.9688 14.3359L49.3594 14.6875C49.3594 13.9219 49.4336 13.2031 49.582 12.5312C49.7383 11.8594 49.9766 11.2656 50.2969 10.75C50.6172 10.2266 51.0234 9.82031 51.5156 9.53125C52.0156 9.23438 52.6094 9.08594 53.2969 9.08594C53.4531 9.08594 53.6328 9.10547 53.8359 9.14453C54.0391 9.17578 54.1797 9.21094 54.2578 9.25ZM63.2695 19.832V13.3047C63.2695 12.8047 63.168 12.3711 62.9648 12.0039C62.7695 11.6289 62.4727 11.3398 62.0742 11.1367C61.6758 10.9336 61.1836 10.832 60.5977 10.832C60.0508 10.832 59.5703 10.9258 59.1562 11.1133C58.75 11.3008 58.4297 11.5469 58.1953 11.8516C57.9688 12.1562 57.8555 12.4844 57.8555 12.8359H55.6875C55.6875 12.3828 55.8047 11.9336 56.0391 11.4883C56.2734 11.043 56.6094 10.6406 57.0469 10.2812C57.4922 9.91406 58.0234 9.625 58.6406 9.41406C59.2656 9.19531 59.9609 9.08594 60.7266 9.08594C61.6484 9.08594 62.4609 9.24219 63.1641 9.55469C63.875 9.86719 64.4297 10.3398 64.8281 10.9727C65.2344 11.5977 65.4375 12.3828 65.4375 13.3281V19.2344C65.4375 19.6562 65.4727 20.1055 65.543 20.582C65.6211 21.0586 65.7344 21.4688 65.8828 21.8125V22H63.6211C63.5117 21.75 63.4258 21.418 63.3633 21.0039C63.3008 20.582 63.2695 20.1914 63.2695 19.832ZM63.6445 14.3125L63.668 15.8359H61.4766C60.8594 15.8359 60.3086 15.8867 59.8242 15.9883C59.3398 16.082 58.9336 16.2266 58.6055 16.4219C58.2773 16.6172 58.0273 16.8633 57.8555 17.1602C57.6836 17.4492 57.5977 17.7891 57.5977 18.1797C57.5977 18.5781 57.6875 18.9414 57.8672 19.2695C58.0469 19.5977 58.3164 19.8594 58.6758 20.0547C59.043 20.2422 59.4922 20.3359 60.0234 20.3359C60.6875 20.3359 61.2734 20.1953 61.7812 19.9141C62.2891 19.6328 62.6914 19.2891 62.9883 18.8828C63.293 18.4766 63.457 18.082 63.4805 17.6992L64.4062 18.7422C64.3516 19.0703 64.2031 19.4336 63.9609 19.832C63.7188 20.2305 63.3945 20.6133 62.9883 20.9805C62.5898 21.3398 62.1133 21.6406 61.5586 21.8828C61.0117 22.1172 60.3945 22.2344 59.707 22.2344C58.8477 22.2344 58.0938 22.0664 57.4453 21.7305C56.8047 21.3945 56.3047 20.9453 55.9453 20.3828C55.5938 19.8125 55.418 19.1758 55.418 18.4727C55.418 17.793 55.5508 17.1953 55.8164 16.6797C56.082 16.1562 56.4648 15.7227 56.9648 15.3789C57.4648 15.0273 58.0664 14.7617 58.7695 14.582C59.4727 14.4023 60.2578 14.3125 61.125 14.3125H63.6445ZM71.0156 4V22H68.8477V4H71.0156ZM70.5 15.1797L69.5977 15.1445C69.6055 14.2773 69.7344 13.4766 69.9844 12.7422C70.2344 12 70.5859 11.3555 71.0391 10.8086C71.4922 10.2617 72.0312 9.83984 72.6562 9.54297C73.2891 9.23828 73.9883 9.08594 74.7539 9.08594C75.3789 9.08594 75.9414 9.17188 76.4414 9.34375C76.9414 9.50781 77.3672 9.77344 77.7188 10.1406C78.0781 10.5078 78.3516 10.9844 78.5391 11.5703C78.7266 12.1484 78.8203 12.8555 78.8203 13.6914V22H76.6406V13.668C76.6406 13.0039 76.543 12.4727 76.3477 12.0742C76.1523 11.668 75.8672 11.375 75.4922 11.1953C75.1172 11.0078 74.6562 10.9141 74.1094 10.9141C73.5703 10.9141 73.0781 11.0273 72.6328 11.2539C72.1953 11.4805 71.8164 11.793 71.4961 12.1914C71.1836 12.5898 70.9375 13.0469 70.7578 13.5625C70.5859 14.0703 70.5 14.6094 70.5 15.1797ZM89.543 19.832V13.3047C89.543 12.8047 89.4414 12.3711 89.2383 12.0039C89.043 11.6289 88.7461 11.3398 88.3477 11.1367C87.9492 10.9336 87.457 10.832 86.8711 10.832C86.3242 10.832 85.8438 10.9258 85.4297 11.1133C85.0234 11.3008 84.7031 11.5469 84.4688 11.8516C84.2422 12.1562 84.1289 12.4844 84.1289 12.8359H81.9609C81.9609 12.3828 82.0781 11.9336 82.3125 11.4883C82.5469 11.043 82.8828 10.6406 83.3203 10.2812C83.7656 9.91406 84.2969 9.625 84.9141 9.41406C85.5391 9.19531 86.2344 9.08594 87 9.08594C87.9219 9.08594 88.7344 9.24219 89.4375 9.55469C90.1484 9.86719 90.7031 10.3398 91.1016 10.9727C91.5078 11.5977 91.7109 12.3828 91.7109 13.3281V19.2344C91.7109 19.6562 91.7461 20.1055 91.8164 20.582C91.8945 21.0586 92.0078 21.4688 92.1562 21.8125V22H89.8945C89.7852 21.75 89.6992 21.418 89.6367 21.0039C89.5742 20.582 89.543 20.1914 89.543 19.832ZM89.918 14.3125L89.9414 15.8359H87.75C87.1328 15.8359 86.582 15.8867 86.0977 15.9883C85.6133 16.082 85.207 16.2266 84.8789 16.4219C84.5508 16.6172 84.3008 16.8633 84.1289 17.1602C83.957 17.4492 83.8711 17.7891 83.8711 18.1797C83.8711 18.5781 83.9609 18.9414 84.1406 19.2695C84.3203 19.5977 84.5898 19.8594 84.9492 20.0547C85.3164 20.2422 85.7656 20.3359 86.2969 20.3359C86.9609 20.3359 87.5469 20.1953 88.0547 19.9141C88.5625 19.6328 88.9648 19.2891 89.2617 18.8828C89.5664 18.4766 89.7305 18.082 89.7539 17.6992L90.6797 18.7422C90.625 19.0703 90.4766 19.4336 90.2344 19.832C89.9922 20.2305 89.668 20.6133 89.2617 20.9805C88.8633 21.3398 88.3867 21.6406 87.832 21.8828C87.2852 22.1172 86.668 22.2344 85.9805 22.2344C85.1211 22.2344 84.3672 22.0664 83.7188 21.7305C83.0781 21.3945 82.5781 20.9453 82.2188 20.3828C81.8672 19.8125 81.6914 19.1758 81.6914 18.4727C81.6914 17.793 81.8242 17.1953 82.0898 16.6797C82.3555 16.1562 82.7383 15.7227 83.2383 15.3789C83.7383 15.0273 84.3398 14.7617 85.043 14.582C85.7461 14.4023 86.5312 14.3125 87.3984 14.3125H89.918ZM97.2773 11.8398V22H95.0977V9.32031H97.1602L97.2773 11.8398ZM96.832 15.1797L95.8242 15.1445C95.832 14.2773 95.9453 13.4766 96.1641 12.7422C96.3828 12 96.707 11.3555 97.1367 10.8086C97.5664 10.2617 98.1016 9.83984 98.7422 9.54297C99.3828 9.23828 100.125 9.08594 100.969 9.08594C101.562 9.08594 102.109 9.17188 102.609 9.34375C103.109 9.50781 103.543 9.76953 103.91 10.1289C104.277 10.4883 104.562 10.9492 104.766 11.5117C104.969 12.0742 105.07 12.7539 105.07 13.5508V22H102.902V13.6562C102.902 12.9922 102.789 12.4609 102.562 12.0625C102.344 11.6641 102.031 11.375 101.625 11.1953C101.219 11.0078 100.742 10.9141 100.195 10.9141C99.5547 10.9141 99.0195 11.0273 98.5898 11.2539C98.1602 11.4805 97.8164 11.793 97.5586 12.1914C97.3008 12.5898 97.1133 13.0469 96.9961 13.5625C96.8867 14.0703 96.832 14.6094 96.832 15.1797ZM105.047 13.9844L103.594 14.4297C103.602 13.7344 103.715 13.0664 103.934 12.4258C104.16 11.7852 104.484 11.2148 104.906 10.7148C105.336 10.2148 105.863 9.82031 106.488 9.53125C107.113 9.23438 107.828 9.08594 108.633 9.08594C109.312 9.08594 109.914 9.17578 110.438 9.35547C110.969 9.53516 111.414 9.8125 111.773 10.1875C112.141 10.5547 112.418 11.0273 112.605 11.6055C112.793 12.1836 112.887 12.8711 112.887 13.668V22H110.707V13.6445C110.707 12.9336 110.594 12.3828 110.367 11.9922C110.148 11.5938 109.836 11.3164 109.43 11.1602C109.031 10.9961 108.555 10.9141 108 10.9141C107.523 10.9141 107.102 10.9961 106.734 11.1602C106.367 11.3242 106.059 11.5508 105.809 11.8398C105.559 12.1211 105.367 12.4453 105.234 12.8125C105.109 13.1797 105.047 13.5703 105.047 13.9844Z" fill="white"/>
<path d="M16.5136 0.175448L31.0632 23.3998L2.46076 23.7037L16.5136 0.175448Z" fill="#008080"/>
</g>
<defs>
<clipPath id="clip0_1_3">
<rect width="120" height="30" fill="white"/>
</clipPath>
</defs>
</svg>
